<svg version="1.1" xmlns="http://www.w3.org/2000/svg" xmlns:xlink="http://www.w3.org/1999/xlink" width="79" height="51" viewBox="0,0,79,51"><g transform="translate(-200.5,-154.5)"><g stroke="#f6a88a" stroke-miterlimit="10"><path d="M203,197.33333c0,-8.46968 0,-24.06899 0,-30c0,-4.47837 2.84634,-10.33334 5.87302,-10.33334c9.27268,0 56.98728,0 66.48254,0c1.06068,0 1.64444,1.95149 1.64444,5c0,9.15314 0,28.19589 0,34c0,3.27794 -2.84634,7 -5.87302,7c-8.51447,0 -49.44115,0 -63.42857,0c-2.94721,0 -4.69841,-2.25488 -4.69841,-5.66667z" fill="#ec8c65" stroke-width="5"/><text transform="translate(211.63001,174.66875) scale(0.48298,0.46208)" font-size="40" xml:space="preserve" fill="#ff9595" stroke-width="1" font-family="Handwriting" font-weight="normal" text-anchor="start"><tspan x="0" dy="0">Página </tspan><tspan x="0" dy="46.15px">alterna</tspan></text></g></g></svg>